<mxfile host="app.diagrams.net" modified="2022-08-27T11:15:08.072Z" agent="5.0 (Windows NT 10.0; Win64; x64) AppleWebKit/537.36 (KHTML, like Gecko) Chrome/104.0.0.0 Safari/537.36" etag="62kPWW38aFfYwrYfZcMp" version="20.2.7" type="github">
  <diagram id="R2lEEEUBdFMjLlhIrx00" name="Page-1">
    <mxGraphModel dx="2003" dy="643" grid="1" gridSize="10" guides="1" tooltips="1" connect="1" arrows="1" fold="1" page="1" pageScale="1" pageWidth="850" pageHeight="1100" math="0" shadow="0" extFonts="Permanent Marker^https://fonts.googleapis.com/css?family=Permanent+Marker">
      <root>
        <mxCell id="0" />
        <mxCell id="1" parent="0" />
        <mxCell id="OrPgmlpN6uTksLVw8aos-190" value="Table" style="shape=table;startSize=30;container=1;collapsible=1;childLayout=tableLayout;fixedRows=1;rowLines=0;fontStyle=1;align=center;resizeLast=1;" vertex="1" parent="1">
          <mxGeometry x="-250" y="230" width="800" height="570" as="geometry" />
        </mxCell>
        <mxCell id="OrPgmlpN6uTksLVw8aos-191" value="" style="shape=tableRow;horizontal=0;startSize=0;swimlaneHead=0;swimlaneBody=0;fillColor=none;collapsible=0;dropTarget=0;points=[[0,0.5],[1,0.5]];portConstraint=eastwest;top=0;left=0;right=0;bottom=1;" vertex="1" parent="OrPgmlpN6uTksLVw8aos-190">
          <mxGeometry y="30" width="800" height="30" as="geometry" />
        </mxCell>
        <mxCell id="OrPgmlpN6uTksLVw8aos-192" value="PK" style="shape=partialRectangle;connectable=0;fillColor=none;top=0;left=0;bottom=0;right=0;fontStyle=1;overflow=hidden;" vertex="1" parent="OrPgmlpN6uTksLVw8aos-191">
          <mxGeometry width="30" height="30" as="geometry">
            <mxRectangle width="30" height="30" as="alternateBounds" />
          </mxGeometry>
        </mxCell>
        <mxCell id="OrPgmlpN6uTksLVw8aos-193" value="table_name_id" style="shape=partialRectangle;connectable=0;fillColor=none;top=0;left=0;bottom=0;right=0;align=left;spacingLeft=6;fontStyle=5;overflow=hidden;" vertex="1" parent="OrPgmlpN6uTksLVw8aos-191">
          <mxGeometry x="30" width="150" height="30" as="geometry">
            <mxRectangle width="150" height="30" as="alternateBounds" />
          </mxGeometry>
        </mxCell>
        <mxCell id="OrPgmlpN6uTksLVw8aos-203" value="name" style="shape=partialRectangle;connectable=0;fillColor=none;top=0;left=0;bottom=0;right=0;align=left;spacingLeft=6;fontStyle=5;overflow=hidden;" vertex="1" parent="OrPgmlpN6uTksLVw8aos-191">
          <mxGeometry x="180" width="110" height="30" as="geometry">
            <mxRectangle width="110" height="30" as="alternateBounds" />
          </mxGeometry>
        </mxCell>
        <mxCell id="OrPgmlpN6uTksLVw8aos-207" value="INT" style="shape=partialRectangle;connectable=0;fillColor=none;top=0;left=0;bottom=0;right=0;align=left;spacingLeft=6;fontStyle=5;overflow=hidden;" vertex="1" parent="OrPgmlpN6uTksLVw8aos-191">
          <mxGeometry x="290" width="90" height="30" as="geometry">
            <mxRectangle width="90" height="30" as="alternateBounds" />
          </mxGeometry>
        </mxCell>
        <mxCell id="OrPgmlpN6uTksLVw8aos-211" value="INT" style="shape=partialRectangle;connectable=0;fillColor=none;top=0;left=0;bottom=0;right=0;align=left;spacingLeft=6;fontStyle=5;overflow=hidden;" vertex="1" parent="OrPgmlpN6uTksLVw8aos-191">
          <mxGeometry x="380" width="90" height="30" as="geometry">
            <mxRectangle width="90" height="30" as="alternateBounds" />
          </mxGeometry>
        </mxCell>
        <mxCell id="OrPgmlpN6uTksLVw8aos-215" value="NUMERIC" style="shape=partialRectangle;connectable=0;fillColor=none;top=0;left=0;bottom=0;right=0;align=left;spacingLeft=6;fontStyle=5;overflow=hidden;" vertex="1" parent="OrPgmlpN6uTksLVw8aos-191">
          <mxGeometry x="470" width="110" height="30" as="geometry">
            <mxRectangle width="110" height="30" as="alternateBounds" />
          </mxGeometry>
        </mxCell>
        <mxCell id="OrPgmlpN6uTksLVw8aos-306" value="BOOLEAN" style="shape=partialRectangle;connectable=0;fillColor=none;top=0;left=0;bottom=0;right=0;align=left;spacingLeft=6;fontStyle=5;overflow=hidden;" vertex="1" parent="OrPgmlpN6uTksLVw8aos-191">
          <mxGeometry x="580" width="110" height="30" as="geometry">
            <mxRectangle width="110" height="30" as="alternateBounds" />
          </mxGeometry>
        </mxCell>
        <mxCell id="OrPgmlpN6uTksLVw8aos-310" value="BOOLEAN" style="shape=partialRectangle;connectable=0;fillColor=none;top=0;left=0;bottom=0;right=0;align=left;spacingLeft=6;fontStyle=5;overflow=hidden;" vertex="1" parent="OrPgmlpN6uTksLVw8aos-191">
          <mxGeometry x="690" width="110" height="30" as="geometry">
            <mxRectangle width="110" height="30" as="alternateBounds" />
          </mxGeometry>
        </mxCell>
        <mxCell id="OrPgmlpN6uTksLVw8aos-194" value="" style="shape=tableRow;horizontal=0;startSize=0;swimlaneHead=0;swimlaneBody=0;fillColor=none;collapsible=0;dropTarget=0;points=[[0,0.5],[1,0.5]];portConstraint=eastwest;top=0;left=0;right=0;bottom=0;" vertex="1" parent="OrPgmlpN6uTksLVw8aos-190">
          <mxGeometry y="60" width="800" height="30" as="geometry" />
        </mxCell>
        <mxCell id="OrPgmlpN6uTksLVw8aos-195" value="" style="shape=partialRectangle;connectable=0;fillColor=none;top=0;left=0;bottom=0;right=0;editable=1;overflow=hidden;" vertex="1" parent="OrPgmlpN6uTksLVw8aos-194">
          <mxGeometry width="30" height="30" as="geometry">
            <mxRectangle width="30" height="30" as="alternateBounds" />
          </mxGeometry>
        </mxCell>
        <mxCell id="OrPgmlpN6uTksLVw8aos-196" value="Row 1" style="shape=partialRectangle;connectable=0;fillColor=none;top=0;left=0;bottom=0;right=0;align=left;spacingLeft=6;overflow=hidden;" vertex="1" parent="OrPgmlpN6uTksLVw8aos-194">
          <mxGeometry x="30" width="150" height="30" as="geometry">
            <mxRectangle width="150" height="30" as="alternateBounds" />
          </mxGeometry>
        </mxCell>
        <mxCell id="OrPgmlpN6uTksLVw8aos-204" style="shape=partialRectangle;connectable=0;fillColor=none;top=0;left=0;bottom=0;right=0;align=left;spacingLeft=6;overflow=hidden;" vertex="1" parent="OrPgmlpN6uTksLVw8aos-194">
          <mxGeometry x="180" width="110" height="30" as="geometry">
            <mxRectangle width="110" height="30" as="alternateBounds" />
          </mxGeometry>
        </mxCell>
        <mxCell id="OrPgmlpN6uTksLVw8aos-208" style="shape=partialRectangle;connectable=0;fillColor=none;top=0;left=0;bottom=0;right=0;align=left;spacingLeft=6;overflow=hidden;" vertex="1" parent="OrPgmlpN6uTksLVw8aos-194">
          <mxGeometry x="290" width="90" height="30" as="geometry">
            <mxRectangle width="90" height="30" as="alternateBounds" />
          </mxGeometry>
        </mxCell>
        <mxCell id="OrPgmlpN6uTksLVw8aos-212" style="shape=partialRectangle;connectable=0;fillColor=none;top=0;left=0;bottom=0;right=0;align=left;spacingLeft=6;overflow=hidden;" vertex="1" parent="OrPgmlpN6uTksLVw8aos-194">
          <mxGeometry x="380" width="90" height="30" as="geometry">
            <mxRectangle width="90" height="30" as="alternateBounds" />
          </mxGeometry>
        </mxCell>
        <mxCell id="OrPgmlpN6uTksLVw8aos-216" style="shape=partialRectangle;connectable=0;fillColor=none;top=0;left=0;bottom=0;right=0;align=left;spacingLeft=6;overflow=hidden;" vertex="1" parent="OrPgmlpN6uTksLVw8aos-194">
          <mxGeometry x="470" width="110" height="30" as="geometry">
            <mxRectangle width="110" height="30" as="alternateBounds" />
          </mxGeometry>
        </mxCell>
        <mxCell id="OrPgmlpN6uTksLVw8aos-307" style="shape=partialRectangle;connectable=0;fillColor=none;top=0;left=0;bottom=0;right=0;align=left;spacingLeft=6;overflow=hidden;" vertex="1" parent="OrPgmlpN6uTksLVw8aos-194">
          <mxGeometry x="580" width="110" height="30" as="geometry">
            <mxRectangle width="110" height="30" as="alternateBounds" />
          </mxGeometry>
        </mxCell>
        <mxCell id="OrPgmlpN6uTksLVw8aos-311" style="shape=partialRectangle;connectable=0;fillColor=none;top=0;left=0;bottom=0;right=0;align=left;spacingLeft=6;overflow=hidden;" vertex="1" parent="OrPgmlpN6uTksLVw8aos-194">
          <mxGeometry x="690" width="110" height="30" as="geometry">
            <mxRectangle width="110" height="30" as="alternateBounds" />
          </mxGeometry>
        </mxCell>
        <mxCell id="OrPgmlpN6uTksLVw8aos-197" value="" style="shape=tableRow;horizontal=0;startSize=0;swimlaneHead=0;swimlaneBody=0;fillColor=none;collapsible=0;dropTarget=0;points=[[0,0.5],[1,0.5]];portConstraint=eastwest;top=0;left=0;right=0;bottom=0;" vertex="1" parent="OrPgmlpN6uTksLVw8aos-190">
          <mxGeometry y="90" width="800" height="30" as="geometry" />
        </mxCell>
        <mxCell id="OrPgmlpN6uTksLVw8aos-198" value="" style="shape=partialRectangle;connectable=0;fillColor=none;top=0;left=0;bottom=0;right=0;editable=1;overflow=hidden;" vertex="1" parent="OrPgmlpN6uTksLVw8aos-197">
          <mxGeometry width="30" height="30" as="geometry">
            <mxRectangle width="30" height="30" as="alternateBounds" />
          </mxGeometry>
        </mxCell>
        <mxCell id="OrPgmlpN6uTksLVw8aos-199" value="Row 2" style="shape=partialRectangle;connectable=0;fillColor=none;top=0;left=0;bottom=0;right=0;align=left;spacingLeft=6;overflow=hidden;" vertex="1" parent="OrPgmlpN6uTksLVw8aos-197">
          <mxGeometry x="30" width="150" height="30" as="geometry">
            <mxRectangle width="150" height="30" as="alternateBounds" />
          </mxGeometry>
        </mxCell>
        <mxCell id="OrPgmlpN6uTksLVw8aos-205" style="shape=partialRectangle;connectable=0;fillColor=none;top=0;left=0;bottom=0;right=0;align=left;spacingLeft=6;overflow=hidden;" vertex="1" parent="OrPgmlpN6uTksLVw8aos-197">
          <mxGeometry x="180" width="110" height="30" as="geometry">
            <mxRectangle width="110" height="30" as="alternateBounds" />
          </mxGeometry>
        </mxCell>
        <mxCell id="OrPgmlpN6uTksLVw8aos-209" style="shape=partialRectangle;connectable=0;fillColor=none;top=0;left=0;bottom=0;right=0;align=left;spacingLeft=6;overflow=hidden;" vertex="1" parent="OrPgmlpN6uTksLVw8aos-197">
          <mxGeometry x="290" width="90" height="30" as="geometry">
            <mxRectangle width="90" height="30" as="alternateBounds" />
          </mxGeometry>
        </mxCell>
        <mxCell id="OrPgmlpN6uTksLVw8aos-213" style="shape=partialRectangle;connectable=0;fillColor=none;top=0;left=0;bottom=0;right=0;align=left;spacingLeft=6;overflow=hidden;" vertex="1" parent="OrPgmlpN6uTksLVw8aos-197">
          <mxGeometry x="380" width="90" height="30" as="geometry">
            <mxRectangle width="90" height="30" as="alternateBounds" />
          </mxGeometry>
        </mxCell>
        <mxCell id="OrPgmlpN6uTksLVw8aos-217" style="shape=partialRectangle;connectable=0;fillColor=none;top=0;left=0;bottom=0;right=0;align=left;spacingLeft=6;overflow=hidden;" vertex="1" parent="OrPgmlpN6uTksLVw8aos-197">
          <mxGeometry x="470" width="110" height="30" as="geometry">
            <mxRectangle width="110" height="30" as="alternateBounds" />
          </mxGeometry>
        </mxCell>
        <mxCell id="OrPgmlpN6uTksLVw8aos-308" style="shape=partialRectangle;connectable=0;fillColor=none;top=0;left=0;bottom=0;right=0;align=left;spacingLeft=6;overflow=hidden;" vertex="1" parent="OrPgmlpN6uTksLVw8aos-197">
          <mxGeometry x="580" width="110" height="30" as="geometry">
            <mxRectangle width="110" height="30" as="alternateBounds" />
          </mxGeometry>
        </mxCell>
        <mxCell id="OrPgmlpN6uTksLVw8aos-312" style="shape=partialRectangle;connectable=0;fillColor=none;top=0;left=0;bottom=0;right=0;align=left;spacingLeft=6;overflow=hidden;" vertex="1" parent="OrPgmlpN6uTksLVw8aos-197">
          <mxGeometry x="690" width="110" height="30" as="geometry">
            <mxRectangle width="110" height="30" as="alternateBounds" />
          </mxGeometry>
        </mxCell>
        <mxCell id="OrPgmlpN6uTksLVw8aos-200" value="" style="shape=tableRow;horizontal=0;startSize=0;swimlaneHead=0;swimlaneBody=0;fillColor=none;collapsible=0;dropTarget=0;points=[[0,0.5],[1,0.5]];portConstraint=eastwest;top=0;left=0;right=0;bottom=0;" vertex="1" parent="OrPgmlpN6uTksLVw8aos-190">
          <mxGeometry y="120" width="800" height="30" as="geometry" />
        </mxCell>
        <mxCell id="OrPgmlpN6uTksLVw8aos-201" value="" style="shape=partialRectangle;connectable=0;fillColor=none;top=0;left=0;bottom=0;right=0;editable=1;overflow=hidden;" vertex="1" parent="OrPgmlpN6uTksLVw8aos-200">
          <mxGeometry width="30" height="30" as="geometry">
            <mxRectangle width="30" height="30" as="alternateBounds" />
          </mxGeometry>
        </mxCell>
        <mxCell id="OrPgmlpN6uTksLVw8aos-202" value="Row 3" style="shape=partialRectangle;connectable=0;fillColor=none;top=0;left=0;bottom=0;right=0;align=left;spacingLeft=6;overflow=hidden;" vertex="1" parent="OrPgmlpN6uTksLVw8aos-200">
          <mxGeometry x="30" width="150" height="30" as="geometry">
            <mxRectangle width="150" height="30" as="alternateBounds" />
          </mxGeometry>
        </mxCell>
        <mxCell id="OrPgmlpN6uTksLVw8aos-206" style="shape=partialRectangle;connectable=0;fillColor=none;top=0;left=0;bottom=0;right=0;align=left;spacingLeft=6;overflow=hidden;" vertex="1" parent="OrPgmlpN6uTksLVw8aos-200">
          <mxGeometry x="180" width="110" height="30" as="geometry">
            <mxRectangle width="110" height="30" as="alternateBounds" />
          </mxGeometry>
        </mxCell>
        <mxCell id="OrPgmlpN6uTksLVw8aos-210" style="shape=partialRectangle;connectable=0;fillColor=none;top=0;left=0;bottom=0;right=0;align=left;spacingLeft=6;overflow=hidden;" vertex="1" parent="OrPgmlpN6uTksLVw8aos-200">
          <mxGeometry x="290" width="90" height="30" as="geometry">
            <mxRectangle width="90" height="30" as="alternateBounds" />
          </mxGeometry>
        </mxCell>
        <mxCell id="OrPgmlpN6uTksLVw8aos-214" style="shape=partialRectangle;connectable=0;fillColor=none;top=0;left=0;bottom=0;right=0;align=left;spacingLeft=6;overflow=hidden;" vertex="1" parent="OrPgmlpN6uTksLVw8aos-200">
          <mxGeometry x="380" width="90" height="30" as="geometry">
            <mxRectangle width="90" height="30" as="alternateBounds" />
          </mxGeometry>
        </mxCell>
        <mxCell id="OrPgmlpN6uTksLVw8aos-218" style="shape=partialRectangle;connectable=0;fillColor=none;top=0;left=0;bottom=0;right=0;align=left;spacingLeft=6;overflow=hidden;" vertex="1" parent="OrPgmlpN6uTksLVw8aos-200">
          <mxGeometry x="470" width="110" height="30" as="geometry">
            <mxRectangle width="110" height="30" as="alternateBounds" />
          </mxGeometry>
        </mxCell>
        <mxCell id="OrPgmlpN6uTksLVw8aos-309" style="shape=partialRectangle;connectable=0;fillColor=none;top=0;left=0;bottom=0;right=0;align=left;spacingLeft=6;overflow=hidden;" vertex="1" parent="OrPgmlpN6uTksLVw8aos-200">
          <mxGeometry x="580" width="110" height="30" as="geometry">
            <mxRectangle width="110" height="30" as="alternateBounds" />
          </mxGeometry>
        </mxCell>
        <mxCell id="OrPgmlpN6uTksLVw8aos-313" style="shape=partialRectangle;connectable=0;fillColor=none;top=0;left=0;bottom=0;right=0;align=left;spacingLeft=6;overflow=hidden;" vertex="1" parent="OrPgmlpN6uTksLVw8aos-200">
          <mxGeometry x="690" width="110" height="30" as="geometry">
            <mxRectangle width="110" height="30" as="alternateBounds" />
          </mxGeometry>
        </mxCell>
        <mxCell id="OrPgmlpN6uTksLVw8aos-323" style="shape=tableRow;horizontal=0;startSize=0;swimlaneHead=0;swimlaneBody=0;fillColor=none;collapsible=0;dropTarget=0;points=[[0,0.5],[1,0.5]];portConstraint=eastwest;top=0;left=0;right=0;bottom=0;" vertex="1" parent="OrPgmlpN6uTksLVw8aos-190">
          <mxGeometry y="150" width="800" height="30" as="geometry" />
        </mxCell>
        <mxCell id="OrPgmlpN6uTksLVw8aos-324" style="shape=partialRectangle;connectable=0;fillColor=none;top=0;left=0;bottom=0;right=0;editable=1;overflow=hidden;" vertex="1" parent="OrPgmlpN6uTksLVw8aos-323">
          <mxGeometry width="30" height="30" as="geometry">
            <mxRectangle width="30" height="30" as="alternateBounds" />
          </mxGeometry>
        </mxCell>
        <mxCell id="OrPgmlpN6uTksLVw8aos-325" value="" style="shape=partialRectangle;connectable=0;fillColor=none;top=0;left=0;bottom=0;right=0;align=left;spacingLeft=6;overflow=hidden;" vertex="1" parent="OrPgmlpN6uTksLVw8aos-323">
          <mxGeometry x="30" width="150" height="30" as="geometry">
            <mxRectangle width="150" height="30" as="alternateBounds" />
          </mxGeometry>
        </mxCell>
        <mxCell id="OrPgmlpN6uTksLVw8aos-326" style="shape=partialRectangle;connectable=0;fillColor=none;top=0;left=0;bottom=0;right=0;align=left;spacingLeft=6;overflow=hidden;" vertex="1" parent="OrPgmlpN6uTksLVw8aos-323">
          <mxGeometry x="180" width="110" height="30" as="geometry">
            <mxRectangle width="110" height="30" as="alternateBounds" />
          </mxGeometry>
        </mxCell>
        <mxCell id="OrPgmlpN6uTksLVw8aos-327" style="shape=partialRectangle;connectable=0;fillColor=none;top=0;left=0;bottom=0;right=0;align=left;spacingLeft=6;overflow=hidden;" vertex="1" parent="OrPgmlpN6uTksLVw8aos-323">
          <mxGeometry x="290" width="90" height="30" as="geometry">
            <mxRectangle width="90" height="30" as="alternateBounds" />
          </mxGeometry>
        </mxCell>
        <mxCell id="OrPgmlpN6uTksLVw8aos-328" style="shape=partialRectangle;connectable=0;fillColor=none;top=0;left=0;bottom=0;right=0;align=left;spacingLeft=6;overflow=hidden;" vertex="1" parent="OrPgmlpN6uTksLVw8aos-323">
          <mxGeometry x="380" width="90" height="30" as="geometry">
            <mxRectangle width="90" height="30" as="alternateBounds" />
          </mxGeometry>
        </mxCell>
        <mxCell id="OrPgmlpN6uTksLVw8aos-329" style="shape=partialRectangle;connectable=0;fillColor=none;top=0;left=0;bottom=0;right=0;align=left;spacingLeft=6;overflow=hidden;" vertex="1" parent="OrPgmlpN6uTksLVw8aos-323">
          <mxGeometry x="470" width="110" height="30" as="geometry">
            <mxRectangle width="110" height="30" as="alternateBounds" />
          </mxGeometry>
        </mxCell>
        <mxCell id="OrPgmlpN6uTksLVw8aos-330" style="shape=partialRectangle;connectable=0;fillColor=none;top=0;left=0;bottom=0;right=0;align=left;spacingLeft=6;overflow=hidden;" vertex="1" parent="OrPgmlpN6uTksLVw8aos-323">
          <mxGeometry x="580" width="110" height="30" as="geometry">
            <mxRectangle width="110" height="30" as="alternateBounds" />
          </mxGeometry>
        </mxCell>
        <mxCell id="OrPgmlpN6uTksLVw8aos-331" style="shape=partialRectangle;connectable=0;fillColor=none;top=0;left=0;bottom=0;right=0;align=left;spacingLeft=6;overflow=hidden;" vertex="1" parent="OrPgmlpN6uTksLVw8aos-323">
          <mxGeometry x="690" width="110" height="30" as="geometry">
            <mxRectangle width="110" height="30" as="alternateBounds" />
          </mxGeometry>
        </mxCell>
        <mxCell id="OrPgmlpN6uTksLVw8aos-314" style="shape=tableRow;horizontal=0;startSize=0;swimlaneHead=0;swimlaneBody=0;fillColor=none;collapsible=0;dropTarget=0;points=[[0,0.5],[1,0.5]];portConstraint=eastwest;top=0;left=0;right=0;bottom=0;" vertex="1" parent="OrPgmlpN6uTksLVw8aos-190">
          <mxGeometry y="180" width="800" height="30" as="geometry" />
        </mxCell>
        <mxCell id="OrPgmlpN6uTksLVw8aos-315" style="shape=partialRectangle;connectable=0;fillColor=none;top=0;left=0;bottom=0;right=0;editable=1;overflow=hidden;" vertex="1" parent="OrPgmlpN6uTksLVw8aos-314">
          <mxGeometry width="30" height="30" as="geometry">
            <mxRectangle width="30" height="30" as="alternateBounds" />
          </mxGeometry>
        </mxCell>
        <mxCell id="OrPgmlpN6uTksLVw8aos-316" style="shape=partialRectangle;connectable=0;fillColor=none;top=0;left=0;bottom=0;right=0;align=left;spacingLeft=6;overflow=hidden;" vertex="1" parent="OrPgmlpN6uTksLVw8aos-314">
          <mxGeometry x="30" width="150" height="30" as="geometry">
            <mxRectangle width="150" height="30" as="alternateBounds" />
          </mxGeometry>
        </mxCell>
        <mxCell id="OrPgmlpN6uTksLVw8aos-317" style="shape=partialRectangle;connectable=0;fillColor=none;top=0;left=0;bottom=0;right=0;align=left;spacingLeft=6;overflow=hidden;" vertex="1" parent="OrPgmlpN6uTksLVw8aos-314">
          <mxGeometry x="180" width="110" height="30" as="geometry">
            <mxRectangle width="110" height="30" as="alternateBounds" />
          </mxGeometry>
        </mxCell>
        <mxCell id="OrPgmlpN6uTksLVw8aos-318" style="shape=partialRectangle;connectable=0;fillColor=none;top=0;left=0;bottom=0;right=0;align=left;spacingLeft=6;overflow=hidden;" vertex="1" parent="OrPgmlpN6uTksLVw8aos-314">
          <mxGeometry x="290" width="90" height="30" as="geometry">
            <mxRectangle width="90" height="30" as="alternateBounds" />
          </mxGeometry>
        </mxCell>
        <mxCell id="OrPgmlpN6uTksLVw8aos-319" style="shape=partialRectangle;connectable=0;fillColor=none;top=0;left=0;bottom=0;right=0;align=left;spacingLeft=6;overflow=hidden;" vertex="1" parent="OrPgmlpN6uTksLVw8aos-314">
          <mxGeometry x="380" width="90" height="30" as="geometry">
            <mxRectangle width="90" height="30" as="alternateBounds" />
          </mxGeometry>
        </mxCell>
        <mxCell id="OrPgmlpN6uTksLVw8aos-320" style="shape=partialRectangle;connectable=0;fillColor=none;top=0;left=0;bottom=0;right=0;align=left;spacingLeft=6;overflow=hidden;" vertex="1" parent="OrPgmlpN6uTksLVw8aos-314">
          <mxGeometry x="470" width="110" height="30" as="geometry">
            <mxRectangle width="110" height="30" as="alternateBounds" />
          </mxGeometry>
        </mxCell>
        <mxCell id="OrPgmlpN6uTksLVw8aos-321" style="shape=partialRectangle;connectable=0;fillColor=none;top=0;left=0;bottom=0;right=0;align=left;spacingLeft=6;overflow=hidden;" vertex="1" parent="OrPgmlpN6uTksLVw8aos-314">
          <mxGeometry x="580" width="110" height="30" as="geometry">
            <mxRectangle width="110" height="30" as="alternateBounds" />
          </mxGeometry>
        </mxCell>
        <mxCell id="OrPgmlpN6uTksLVw8aos-322" style="shape=partialRectangle;connectable=0;fillColor=none;top=0;left=0;bottom=0;right=0;align=left;spacingLeft=6;overflow=hidden;" vertex="1" parent="OrPgmlpN6uTksLVw8aos-314">
          <mxGeometry x="690" width="110" height="30" as="geometry">
            <mxRectangle width="110" height="30" as="alternateBounds" />
          </mxGeometry>
        </mxCell>
        <mxCell id="OrPgmlpN6uTksLVw8aos-332" value="" style="shape=tableRow;horizontal=0;startSize=0;swimlaneHead=0;swimlaneBody=0;fillColor=none;collapsible=0;dropTarget=0;points=[[0,0.5],[1,0.5]];portConstraint=eastwest;top=0;left=0;right=0;bottom=0;" vertex="1" parent="OrPgmlpN6uTksLVw8aos-190">
          <mxGeometry y="210" width="800" height="30" as="geometry" />
        </mxCell>
        <mxCell id="OrPgmlpN6uTksLVw8aos-333" value="" style="shape=partialRectangle;connectable=0;fillColor=none;top=0;left=0;bottom=0;right=0;editable=1;overflow=hidden;" vertex="1" parent="OrPgmlpN6uTksLVw8aos-332">
          <mxGeometry width="30" height="30" as="geometry">
            <mxRectangle width="30" height="30" as="alternateBounds" />
          </mxGeometry>
        </mxCell>
        <mxCell id="OrPgmlpN6uTksLVw8aos-334" value="Row 3" style="shape=partialRectangle;connectable=0;fillColor=none;top=0;left=0;bottom=0;right=0;align=left;spacingLeft=6;overflow=hidden;" vertex="1" parent="OrPgmlpN6uTksLVw8aos-332">
          <mxGeometry x="30" width="150" height="30" as="geometry">
            <mxRectangle width="150" height="30" as="alternateBounds" />
          </mxGeometry>
        </mxCell>
        <mxCell id="OrPgmlpN6uTksLVw8aos-335" style="shape=partialRectangle;connectable=0;fillColor=none;top=0;left=0;bottom=0;right=0;align=left;spacingLeft=6;overflow=hidden;" vertex="1" parent="OrPgmlpN6uTksLVw8aos-332">
          <mxGeometry x="180" width="110" height="30" as="geometry">
            <mxRectangle width="110" height="30" as="alternateBounds" />
          </mxGeometry>
        </mxCell>
        <mxCell id="OrPgmlpN6uTksLVw8aos-336" style="shape=partialRectangle;connectable=0;fillColor=none;top=0;left=0;bottom=0;right=0;align=left;spacingLeft=6;overflow=hidden;" vertex="1" parent="OrPgmlpN6uTksLVw8aos-332">
          <mxGeometry x="290" width="90" height="30" as="geometry">
            <mxRectangle width="90" height="30" as="alternateBounds" />
          </mxGeometry>
        </mxCell>
        <mxCell id="OrPgmlpN6uTksLVw8aos-337" style="shape=partialRectangle;connectable=0;fillColor=none;top=0;left=0;bottom=0;right=0;align=left;spacingLeft=6;overflow=hidden;" vertex="1" parent="OrPgmlpN6uTksLVw8aos-332">
          <mxGeometry x="380" width="90" height="30" as="geometry">
            <mxRectangle width="90" height="30" as="alternateBounds" />
          </mxGeometry>
        </mxCell>
        <mxCell id="OrPgmlpN6uTksLVw8aos-338" style="shape=partialRectangle;connectable=0;fillColor=none;top=0;left=0;bottom=0;right=0;align=left;spacingLeft=6;overflow=hidden;" vertex="1" parent="OrPgmlpN6uTksLVw8aos-332">
          <mxGeometry x="470" width="110" height="30" as="geometry">
            <mxRectangle width="110" height="30" as="alternateBounds" />
          </mxGeometry>
        </mxCell>
        <mxCell id="OrPgmlpN6uTksLVw8aos-339" style="shape=partialRectangle;connectable=0;fillColor=none;top=0;left=0;bottom=0;right=0;align=left;spacingLeft=6;overflow=hidden;" vertex="1" parent="OrPgmlpN6uTksLVw8aos-332">
          <mxGeometry x="580" width="110" height="30" as="geometry">
            <mxRectangle width="110" height="30" as="alternateBounds" />
          </mxGeometry>
        </mxCell>
        <mxCell id="OrPgmlpN6uTksLVw8aos-340" style="shape=partialRectangle;connectable=0;fillColor=none;top=0;left=0;bottom=0;right=0;align=left;spacingLeft=6;overflow=hidden;" vertex="1" parent="OrPgmlpN6uTksLVw8aos-332">
          <mxGeometry x="690" width="110" height="30" as="geometry">
            <mxRectangle width="110" height="30" as="alternateBounds" />
          </mxGeometry>
        </mxCell>
        <mxCell id="OrPgmlpN6uTksLVw8aos-341" value="" style="shape=tableRow;horizontal=0;startSize=0;swimlaneHead=0;swimlaneBody=0;fillColor=none;collapsible=0;dropTarget=0;points=[[0,0.5],[1,0.5]];portConstraint=eastwest;top=0;left=0;right=0;bottom=0;" vertex="1" parent="OrPgmlpN6uTksLVw8aos-190">
          <mxGeometry y="240" width="800" height="30" as="geometry" />
        </mxCell>
        <mxCell id="OrPgmlpN6uTksLVw8aos-342" value="" style="shape=partialRectangle;connectable=0;fillColor=none;top=0;left=0;bottom=0;right=0;editable=1;overflow=hidden;" vertex="1" parent="OrPgmlpN6uTksLVw8aos-341">
          <mxGeometry width="30" height="30" as="geometry">
            <mxRectangle width="30" height="30" as="alternateBounds" />
          </mxGeometry>
        </mxCell>
        <mxCell id="OrPgmlpN6uTksLVw8aos-343" value="Row 3" style="shape=partialRectangle;connectable=0;fillColor=none;top=0;left=0;bottom=0;right=0;align=left;spacingLeft=6;overflow=hidden;" vertex="1" parent="OrPgmlpN6uTksLVw8aos-341">
          <mxGeometry x="30" width="150" height="30" as="geometry">
            <mxRectangle width="150" height="30" as="alternateBounds" />
          </mxGeometry>
        </mxCell>
        <mxCell id="OrPgmlpN6uTksLVw8aos-344" style="shape=partialRectangle;connectable=0;fillColor=none;top=0;left=0;bottom=0;right=0;align=left;spacingLeft=6;overflow=hidden;" vertex="1" parent="OrPgmlpN6uTksLVw8aos-341">
          <mxGeometry x="180" width="110" height="30" as="geometry">
            <mxRectangle width="110" height="30" as="alternateBounds" />
          </mxGeometry>
        </mxCell>
        <mxCell id="OrPgmlpN6uTksLVw8aos-345" style="shape=partialRectangle;connectable=0;fillColor=none;top=0;left=0;bottom=0;right=0;align=left;spacingLeft=6;overflow=hidden;" vertex="1" parent="OrPgmlpN6uTksLVw8aos-341">
          <mxGeometry x="290" width="90" height="30" as="geometry">
            <mxRectangle width="90" height="30" as="alternateBounds" />
          </mxGeometry>
        </mxCell>
        <mxCell id="OrPgmlpN6uTksLVw8aos-346" style="shape=partialRectangle;connectable=0;fillColor=none;top=0;left=0;bottom=0;right=0;align=left;spacingLeft=6;overflow=hidden;" vertex="1" parent="OrPgmlpN6uTksLVw8aos-341">
          <mxGeometry x="380" width="90" height="30" as="geometry">
            <mxRectangle width="90" height="30" as="alternateBounds" />
          </mxGeometry>
        </mxCell>
        <mxCell id="OrPgmlpN6uTksLVw8aos-347" style="shape=partialRectangle;connectable=0;fillColor=none;top=0;left=0;bottom=0;right=0;align=left;spacingLeft=6;overflow=hidden;" vertex="1" parent="OrPgmlpN6uTksLVw8aos-341">
          <mxGeometry x="470" width="110" height="30" as="geometry">
            <mxRectangle width="110" height="30" as="alternateBounds" />
          </mxGeometry>
        </mxCell>
        <mxCell id="OrPgmlpN6uTksLVw8aos-348" style="shape=partialRectangle;connectable=0;fillColor=none;top=0;left=0;bottom=0;right=0;align=left;spacingLeft=6;overflow=hidden;" vertex="1" parent="OrPgmlpN6uTksLVw8aos-341">
          <mxGeometry x="580" width="110" height="30" as="geometry">
            <mxRectangle width="110" height="30" as="alternateBounds" />
          </mxGeometry>
        </mxCell>
        <mxCell id="OrPgmlpN6uTksLVw8aos-349" style="shape=partialRectangle;connectable=0;fillColor=none;top=0;left=0;bottom=0;right=0;align=left;spacingLeft=6;overflow=hidden;" vertex="1" parent="OrPgmlpN6uTksLVw8aos-341">
          <mxGeometry x="690" width="110" height="30" as="geometry">
            <mxRectangle width="110" height="30" as="alternateBounds" />
          </mxGeometry>
        </mxCell>
        <mxCell id="OrPgmlpN6uTksLVw8aos-359" style="shape=tableRow;horizontal=0;startSize=0;swimlaneHead=0;swimlaneBody=0;fillColor=none;collapsible=0;dropTarget=0;points=[[0,0.5],[1,0.5]];portConstraint=eastwest;top=0;left=0;right=0;bottom=0;" vertex="1" parent="OrPgmlpN6uTksLVw8aos-190">
          <mxGeometry y="270" width="800" height="30" as="geometry" />
        </mxCell>
        <mxCell id="OrPgmlpN6uTksLVw8aos-360" style="shape=partialRectangle;connectable=0;fillColor=none;top=0;left=0;bottom=0;right=0;editable=1;overflow=hidden;" vertex="1" parent="OrPgmlpN6uTksLVw8aos-359">
          <mxGeometry width="30" height="30" as="geometry">
            <mxRectangle width="30" height="30" as="alternateBounds" />
          </mxGeometry>
        </mxCell>
        <mxCell id="OrPgmlpN6uTksLVw8aos-361" style="shape=partialRectangle;connectable=0;fillColor=none;top=0;left=0;bottom=0;right=0;align=left;spacingLeft=6;overflow=hidden;" vertex="1" parent="OrPgmlpN6uTksLVw8aos-359">
          <mxGeometry x="30" width="150" height="30" as="geometry">
            <mxRectangle width="150" height="30" as="alternateBounds" />
          </mxGeometry>
        </mxCell>
        <mxCell id="OrPgmlpN6uTksLVw8aos-362" style="shape=partialRectangle;connectable=0;fillColor=none;top=0;left=0;bottom=0;right=0;align=left;spacingLeft=6;overflow=hidden;" vertex="1" parent="OrPgmlpN6uTksLVw8aos-359">
          <mxGeometry x="180" width="110" height="30" as="geometry">
            <mxRectangle width="110" height="30" as="alternateBounds" />
          </mxGeometry>
        </mxCell>
        <mxCell id="OrPgmlpN6uTksLVw8aos-363" style="shape=partialRectangle;connectable=0;fillColor=none;top=0;left=0;bottom=0;right=0;align=left;spacingLeft=6;overflow=hidden;" vertex="1" parent="OrPgmlpN6uTksLVw8aos-359">
          <mxGeometry x="290" width="90" height="30" as="geometry">
            <mxRectangle width="90" height="30" as="alternateBounds" />
          </mxGeometry>
        </mxCell>
        <mxCell id="OrPgmlpN6uTksLVw8aos-364" style="shape=partialRectangle;connectable=0;fillColor=none;top=0;left=0;bottom=0;right=0;align=left;spacingLeft=6;overflow=hidden;" vertex="1" parent="OrPgmlpN6uTksLVw8aos-359">
          <mxGeometry x="380" width="90" height="30" as="geometry">
            <mxRectangle width="90" height="30" as="alternateBounds" />
          </mxGeometry>
        </mxCell>
        <mxCell id="OrPgmlpN6uTksLVw8aos-365" style="shape=partialRectangle;connectable=0;fillColor=none;top=0;left=0;bottom=0;right=0;align=left;spacingLeft=6;overflow=hidden;" vertex="1" parent="OrPgmlpN6uTksLVw8aos-359">
          <mxGeometry x="470" width="110" height="30" as="geometry">
            <mxRectangle width="110" height="30" as="alternateBounds" />
          </mxGeometry>
        </mxCell>
        <mxCell id="OrPgmlpN6uTksLVw8aos-366" style="shape=partialRectangle;connectable=0;fillColor=none;top=0;left=0;bottom=0;right=0;align=left;spacingLeft=6;overflow=hidden;" vertex="1" parent="OrPgmlpN6uTksLVw8aos-359">
          <mxGeometry x="580" width="110" height="30" as="geometry">
            <mxRectangle width="110" height="30" as="alternateBounds" />
          </mxGeometry>
        </mxCell>
        <mxCell id="OrPgmlpN6uTksLVw8aos-367" style="shape=partialRectangle;connectable=0;fillColor=none;top=0;left=0;bottom=0;right=0;align=left;spacingLeft=6;overflow=hidden;" vertex="1" parent="OrPgmlpN6uTksLVw8aos-359">
          <mxGeometry x="690" width="110" height="30" as="geometry">
            <mxRectangle width="110" height="30" as="alternateBounds" />
          </mxGeometry>
        </mxCell>
        <mxCell id="OrPgmlpN6uTksLVw8aos-368" style="shape=tableRow;horizontal=0;startSize=0;swimlaneHead=0;swimlaneBody=0;fillColor=none;collapsible=0;dropTarget=0;points=[[0,0.5],[1,0.5]];portConstraint=eastwest;top=0;left=0;right=0;bottom=0;" vertex="1" parent="OrPgmlpN6uTksLVw8aos-190">
          <mxGeometry y="300" width="800" height="30" as="geometry" />
        </mxCell>
        <mxCell id="OrPgmlpN6uTksLVw8aos-369" style="shape=partialRectangle;connectable=0;fillColor=none;top=0;left=0;bottom=0;right=0;editable=1;overflow=hidden;" vertex="1" parent="OrPgmlpN6uTksLVw8aos-368">
          <mxGeometry width="30" height="30" as="geometry">
            <mxRectangle width="30" height="30" as="alternateBounds" />
          </mxGeometry>
        </mxCell>
        <mxCell id="OrPgmlpN6uTksLVw8aos-370" style="shape=partialRectangle;connectable=0;fillColor=none;top=0;left=0;bottom=0;right=0;align=left;spacingLeft=6;overflow=hidden;" vertex="1" parent="OrPgmlpN6uTksLVw8aos-368">
          <mxGeometry x="30" width="150" height="30" as="geometry">
            <mxRectangle width="150" height="30" as="alternateBounds" />
          </mxGeometry>
        </mxCell>
        <mxCell id="OrPgmlpN6uTksLVw8aos-371" style="shape=partialRectangle;connectable=0;fillColor=none;top=0;left=0;bottom=0;right=0;align=left;spacingLeft=6;overflow=hidden;" vertex="1" parent="OrPgmlpN6uTksLVw8aos-368">
          <mxGeometry x="180" width="110" height="30" as="geometry">
            <mxRectangle width="110" height="30" as="alternateBounds" />
          </mxGeometry>
        </mxCell>
        <mxCell id="OrPgmlpN6uTksLVw8aos-372" style="shape=partialRectangle;connectable=0;fillColor=none;top=0;left=0;bottom=0;right=0;align=left;spacingLeft=6;overflow=hidden;" vertex="1" parent="OrPgmlpN6uTksLVw8aos-368">
          <mxGeometry x="290" width="90" height="30" as="geometry">
            <mxRectangle width="90" height="30" as="alternateBounds" />
          </mxGeometry>
        </mxCell>
        <mxCell id="OrPgmlpN6uTksLVw8aos-373" style="shape=partialRectangle;connectable=0;fillColor=none;top=0;left=0;bottom=0;right=0;align=left;spacingLeft=6;overflow=hidden;" vertex="1" parent="OrPgmlpN6uTksLVw8aos-368">
          <mxGeometry x="380" width="90" height="30" as="geometry">
            <mxRectangle width="90" height="30" as="alternateBounds" />
          </mxGeometry>
        </mxCell>
        <mxCell id="OrPgmlpN6uTksLVw8aos-374" style="shape=partialRectangle;connectable=0;fillColor=none;top=0;left=0;bottom=0;right=0;align=left;spacingLeft=6;overflow=hidden;" vertex="1" parent="OrPgmlpN6uTksLVw8aos-368">
          <mxGeometry x="470" width="110" height="30" as="geometry">
            <mxRectangle width="110" height="30" as="alternateBounds" />
          </mxGeometry>
        </mxCell>
        <mxCell id="OrPgmlpN6uTksLVw8aos-375" style="shape=partialRectangle;connectable=0;fillColor=none;top=0;left=0;bottom=0;right=0;align=left;spacingLeft=6;overflow=hidden;" vertex="1" parent="OrPgmlpN6uTksLVw8aos-368">
          <mxGeometry x="580" width="110" height="30" as="geometry">
            <mxRectangle width="110" height="30" as="alternateBounds" />
          </mxGeometry>
        </mxCell>
        <mxCell id="OrPgmlpN6uTksLVw8aos-376" style="shape=partialRectangle;connectable=0;fillColor=none;top=0;left=0;bottom=0;right=0;align=left;spacingLeft=6;overflow=hidden;" vertex="1" parent="OrPgmlpN6uTksLVw8aos-368">
          <mxGeometry x="690" width="110" height="30" as="geometry">
            <mxRectangle width="110" height="30" as="alternateBounds" />
          </mxGeometry>
        </mxCell>
        <mxCell id="OrPgmlpN6uTksLVw8aos-377" style="shape=tableRow;horizontal=0;startSize=0;swimlaneHead=0;swimlaneBody=0;fillColor=none;collapsible=0;dropTarget=0;points=[[0,0.5],[1,0.5]];portConstraint=eastwest;top=0;left=0;right=0;bottom=0;" vertex="1" parent="OrPgmlpN6uTksLVw8aos-190">
          <mxGeometry y="330" width="800" height="30" as="geometry" />
        </mxCell>
        <mxCell id="OrPgmlpN6uTksLVw8aos-378" style="shape=partialRectangle;connectable=0;fillColor=none;top=0;left=0;bottom=0;right=0;editable=1;overflow=hidden;" vertex="1" parent="OrPgmlpN6uTksLVw8aos-377">
          <mxGeometry width="30" height="30" as="geometry">
            <mxRectangle width="30" height="30" as="alternateBounds" />
          </mxGeometry>
        </mxCell>
        <mxCell id="OrPgmlpN6uTksLVw8aos-379" style="shape=partialRectangle;connectable=0;fillColor=none;top=0;left=0;bottom=0;right=0;align=left;spacingLeft=6;overflow=hidden;" vertex="1" parent="OrPgmlpN6uTksLVw8aos-377">
          <mxGeometry x="30" width="150" height="30" as="geometry">
            <mxRectangle width="150" height="30" as="alternateBounds" />
          </mxGeometry>
        </mxCell>
        <mxCell id="OrPgmlpN6uTksLVw8aos-380" style="shape=partialRectangle;connectable=0;fillColor=none;top=0;left=0;bottom=0;right=0;align=left;spacingLeft=6;overflow=hidden;" vertex="1" parent="OrPgmlpN6uTksLVw8aos-377">
          <mxGeometry x="180" width="110" height="30" as="geometry">
            <mxRectangle width="110" height="30" as="alternateBounds" />
          </mxGeometry>
        </mxCell>
        <mxCell id="OrPgmlpN6uTksLVw8aos-381" style="shape=partialRectangle;connectable=0;fillColor=none;top=0;left=0;bottom=0;right=0;align=left;spacingLeft=6;overflow=hidden;" vertex="1" parent="OrPgmlpN6uTksLVw8aos-377">
          <mxGeometry x="290" width="90" height="30" as="geometry">
            <mxRectangle width="90" height="30" as="alternateBounds" />
          </mxGeometry>
        </mxCell>
        <mxCell id="OrPgmlpN6uTksLVw8aos-382" style="shape=partialRectangle;connectable=0;fillColor=none;top=0;left=0;bottom=0;right=0;align=left;spacingLeft=6;overflow=hidden;" vertex="1" parent="OrPgmlpN6uTksLVw8aos-377">
          <mxGeometry x="380" width="90" height="30" as="geometry">
            <mxRectangle width="90" height="30" as="alternateBounds" />
          </mxGeometry>
        </mxCell>
        <mxCell id="OrPgmlpN6uTksLVw8aos-383" style="shape=partialRectangle;connectable=0;fillColor=none;top=0;left=0;bottom=0;right=0;align=left;spacingLeft=6;overflow=hidden;" vertex="1" parent="OrPgmlpN6uTksLVw8aos-377">
          <mxGeometry x="470" width="110" height="30" as="geometry">
            <mxRectangle width="110" height="30" as="alternateBounds" />
          </mxGeometry>
        </mxCell>
        <mxCell id="OrPgmlpN6uTksLVw8aos-384" style="shape=partialRectangle;connectable=0;fillColor=none;top=0;left=0;bottom=0;right=0;align=left;spacingLeft=6;overflow=hidden;" vertex="1" parent="OrPgmlpN6uTksLVw8aos-377">
          <mxGeometry x="580" width="110" height="30" as="geometry">
            <mxRectangle width="110" height="30" as="alternateBounds" />
          </mxGeometry>
        </mxCell>
        <mxCell id="OrPgmlpN6uTksLVw8aos-385" style="shape=partialRectangle;connectable=0;fillColor=none;top=0;left=0;bottom=0;right=0;align=left;spacingLeft=6;overflow=hidden;" vertex="1" parent="OrPgmlpN6uTksLVw8aos-377">
          <mxGeometry x="690" width="110" height="30" as="geometry">
            <mxRectangle width="110" height="30" as="alternateBounds" />
          </mxGeometry>
        </mxCell>
        <mxCell id="OrPgmlpN6uTksLVw8aos-386" style="shape=tableRow;horizontal=0;startSize=0;swimlaneHead=0;swimlaneBody=0;fillColor=none;collapsible=0;dropTarget=0;points=[[0,0.5],[1,0.5]];portConstraint=eastwest;top=0;left=0;right=0;bottom=0;" vertex="1" parent="OrPgmlpN6uTksLVw8aos-190">
          <mxGeometry y="360" width="800" height="30" as="geometry" />
        </mxCell>
        <mxCell id="OrPgmlpN6uTksLVw8aos-387" style="shape=partialRectangle;connectable=0;fillColor=none;top=0;left=0;bottom=0;right=0;editable=1;overflow=hidden;" vertex="1" parent="OrPgmlpN6uTksLVw8aos-386">
          <mxGeometry width="30" height="30" as="geometry">
            <mxRectangle width="30" height="30" as="alternateBounds" />
          </mxGeometry>
        </mxCell>
        <mxCell id="OrPgmlpN6uTksLVw8aos-388" style="shape=partialRectangle;connectable=0;fillColor=none;top=0;left=0;bottom=0;right=0;align=left;spacingLeft=6;overflow=hidden;" vertex="1" parent="OrPgmlpN6uTksLVw8aos-386">
          <mxGeometry x="30" width="150" height="30" as="geometry">
            <mxRectangle width="150" height="30" as="alternateBounds" />
          </mxGeometry>
        </mxCell>
        <mxCell id="OrPgmlpN6uTksLVw8aos-389" style="shape=partialRectangle;connectable=0;fillColor=none;top=0;left=0;bottom=0;right=0;align=left;spacingLeft=6;overflow=hidden;" vertex="1" parent="OrPgmlpN6uTksLVw8aos-386">
          <mxGeometry x="180" width="110" height="30" as="geometry">
            <mxRectangle width="110" height="30" as="alternateBounds" />
          </mxGeometry>
        </mxCell>
        <mxCell id="OrPgmlpN6uTksLVw8aos-390" style="shape=partialRectangle;connectable=0;fillColor=none;top=0;left=0;bottom=0;right=0;align=left;spacingLeft=6;overflow=hidden;" vertex="1" parent="OrPgmlpN6uTksLVw8aos-386">
          <mxGeometry x="290" width="90" height="30" as="geometry">
            <mxRectangle width="90" height="30" as="alternateBounds" />
          </mxGeometry>
        </mxCell>
        <mxCell id="OrPgmlpN6uTksLVw8aos-391" style="shape=partialRectangle;connectable=0;fillColor=none;top=0;left=0;bottom=0;right=0;align=left;spacingLeft=6;overflow=hidden;" vertex="1" parent="OrPgmlpN6uTksLVw8aos-386">
          <mxGeometry x="380" width="90" height="30" as="geometry">
            <mxRectangle width="90" height="30" as="alternateBounds" />
          </mxGeometry>
        </mxCell>
        <mxCell id="OrPgmlpN6uTksLVw8aos-392" style="shape=partialRectangle;connectable=0;fillColor=none;top=0;left=0;bottom=0;right=0;align=left;spacingLeft=6;overflow=hidden;" vertex="1" parent="OrPgmlpN6uTksLVw8aos-386">
          <mxGeometry x="470" width="110" height="30" as="geometry">
            <mxRectangle width="110" height="30" as="alternateBounds" />
          </mxGeometry>
        </mxCell>
        <mxCell id="OrPgmlpN6uTksLVw8aos-393" style="shape=partialRectangle;connectable=0;fillColor=none;top=0;left=0;bottom=0;right=0;align=left;spacingLeft=6;overflow=hidden;" vertex="1" parent="OrPgmlpN6uTksLVw8aos-386">
          <mxGeometry x="580" width="110" height="30" as="geometry">
            <mxRectangle width="110" height="30" as="alternateBounds" />
          </mxGeometry>
        </mxCell>
        <mxCell id="OrPgmlpN6uTksLVw8aos-394" style="shape=partialRectangle;connectable=0;fillColor=none;top=0;left=0;bottom=0;right=0;align=left;spacingLeft=6;overflow=hidden;" vertex="1" parent="OrPgmlpN6uTksLVw8aos-386">
          <mxGeometry x="690" width="110" height="30" as="geometry">
            <mxRectangle width="110" height="30" as="alternateBounds" />
          </mxGeometry>
        </mxCell>
        <mxCell id="OrPgmlpN6uTksLVw8aos-395" style="shape=tableRow;horizontal=0;startSize=0;swimlaneHead=0;swimlaneBody=0;fillColor=none;collapsible=0;dropTarget=0;points=[[0,0.5],[1,0.5]];portConstraint=eastwest;top=0;left=0;right=0;bottom=0;" vertex="1" parent="OrPgmlpN6uTksLVw8aos-190">
          <mxGeometry y="390" width="800" height="30" as="geometry" />
        </mxCell>
        <mxCell id="OrPgmlpN6uTksLVw8aos-396" style="shape=partialRectangle;connectable=0;fillColor=none;top=0;left=0;bottom=0;right=0;editable=1;overflow=hidden;" vertex="1" parent="OrPgmlpN6uTksLVw8aos-395">
          <mxGeometry width="30" height="30" as="geometry">
            <mxRectangle width="30" height="30" as="alternateBounds" />
          </mxGeometry>
        </mxCell>
        <mxCell id="OrPgmlpN6uTksLVw8aos-397" style="shape=partialRectangle;connectable=0;fillColor=none;top=0;left=0;bottom=0;right=0;align=left;spacingLeft=6;overflow=hidden;" vertex="1" parent="OrPgmlpN6uTksLVw8aos-395">
          <mxGeometry x="30" width="150" height="30" as="geometry">
            <mxRectangle width="150" height="30" as="alternateBounds" />
          </mxGeometry>
        </mxCell>
        <mxCell id="OrPgmlpN6uTksLVw8aos-398" style="shape=partialRectangle;connectable=0;fillColor=none;top=0;left=0;bottom=0;right=0;align=left;spacingLeft=6;overflow=hidden;" vertex="1" parent="OrPgmlpN6uTksLVw8aos-395">
          <mxGeometry x="180" width="110" height="30" as="geometry">
            <mxRectangle width="110" height="30" as="alternateBounds" />
          </mxGeometry>
        </mxCell>
        <mxCell id="OrPgmlpN6uTksLVw8aos-399" style="shape=partialRectangle;connectable=0;fillColor=none;top=0;left=0;bottom=0;right=0;align=left;spacingLeft=6;overflow=hidden;" vertex="1" parent="OrPgmlpN6uTksLVw8aos-395">
          <mxGeometry x="290" width="90" height="30" as="geometry">
            <mxRectangle width="90" height="30" as="alternateBounds" />
          </mxGeometry>
        </mxCell>
        <mxCell id="OrPgmlpN6uTksLVw8aos-400" style="shape=partialRectangle;connectable=0;fillColor=none;top=0;left=0;bottom=0;right=0;align=left;spacingLeft=6;overflow=hidden;" vertex="1" parent="OrPgmlpN6uTksLVw8aos-395">
          <mxGeometry x="380" width="90" height="30" as="geometry">
            <mxRectangle width="90" height="30" as="alternateBounds" />
          </mxGeometry>
        </mxCell>
        <mxCell id="OrPgmlpN6uTksLVw8aos-401" style="shape=partialRectangle;connectable=0;fillColor=none;top=0;left=0;bottom=0;right=0;align=left;spacingLeft=6;overflow=hidden;" vertex="1" parent="OrPgmlpN6uTksLVw8aos-395">
          <mxGeometry x="470" width="110" height="30" as="geometry">
            <mxRectangle width="110" height="30" as="alternateBounds" />
          </mxGeometry>
        </mxCell>
        <mxCell id="OrPgmlpN6uTksLVw8aos-402" style="shape=partialRectangle;connectable=0;fillColor=none;top=0;left=0;bottom=0;right=0;align=left;spacingLeft=6;overflow=hidden;" vertex="1" parent="OrPgmlpN6uTksLVw8aos-395">
          <mxGeometry x="580" width="110" height="30" as="geometry">
            <mxRectangle width="110" height="30" as="alternateBounds" />
          </mxGeometry>
        </mxCell>
        <mxCell id="OrPgmlpN6uTksLVw8aos-403" style="shape=partialRectangle;connectable=0;fillColor=none;top=0;left=0;bottom=0;right=0;align=left;spacingLeft=6;overflow=hidden;" vertex="1" parent="OrPgmlpN6uTksLVw8aos-395">
          <mxGeometry x="690" width="110" height="30" as="geometry">
            <mxRectangle width="110" height="30" as="alternateBounds" />
          </mxGeometry>
        </mxCell>
        <mxCell id="OrPgmlpN6uTksLVw8aos-404" style="shape=tableRow;horizontal=0;startSize=0;swimlaneHead=0;swimlaneBody=0;fillColor=none;collapsible=0;dropTarget=0;points=[[0,0.5],[1,0.5]];portConstraint=eastwest;top=0;left=0;right=0;bottom=0;" vertex="1" parent="OrPgmlpN6uTksLVw8aos-190">
          <mxGeometry y="420" width="800" height="30" as="geometry" />
        </mxCell>
        <mxCell id="OrPgmlpN6uTksLVw8aos-405" style="shape=partialRectangle;connectable=0;fillColor=none;top=0;left=0;bottom=0;right=0;editable=1;overflow=hidden;" vertex="1" parent="OrPgmlpN6uTksLVw8aos-404">
          <mxGeometry width="30" height="30" as="geometry">
            <mxRectangle width="30" height="30" as="alternateBounds" />
          </mxGeometry>
        </mxCell>
        <mxCell id="OrPgmlpN6uTksLVw8aos-406" style="shape=partialRectangle;connectable=0;fillColor=none;top=0;left=0;bottom=0;right=0;align=left;spacingLeft=6;overflow=hidden;" vertex="1" parent="OrPgmlpN6uTksLVw8aos-404">
          <mxGeometry x="30" width="150" height="30" as="geometry">
            <mxRectangle width="150" height="30" as="alternateBounds" />
          </mxGeometry>
        </mxCell>
        <mxCell id="OrPgmlpN6uTksLVw8aos-407" style="shape=partialRectangle;connectable=0;fillColor=none;top=0;left=0;bottom=0;right=0;align=left;spacingLeft=6;overflow=hidden;" vertex="1" parent="OrPgmlpN6uTksLVw8aos-404">
          <mxGeometry x="180" width="110" height="30" as="geometry">
            <mxRectangle width="110" height="30" as="alternateBounds" />
          </mxGeometry>
        </mxCell>
        <mxCell id="OrPgmlpN6uTksLVw8aos-408" style="shape=partialRectangle;connectable=0;fillColor=none;top=0;left=0;bottom=0;right=0;align=left;spacingLeft=6;overflow=hidden;" vertex="1" parent="OrPgmlpN6uTksLVw8aos-404">
          <mxGeometry x="290" width="90" height="30" as="geometry">
            <mxRectangle width="90" height="30" as="alternateBounds" />
          </mxGeometry>
        </mxCell>
        <mxCell id="OrPgmlpN6uTksLVw8aos-409" style="shape=partialRectangle;connectable=0;fillColor=none;top=0;left=0;bottom=0;right=0;align=left;spacingLeft=6;overflow=hidden;" vertex="1" parent="OrPgmlpN6uTksLVw8aos-404">
          <mxGeometry x="380" width="90" height="30" as="geometry">
            <mxRectangle width="90" height="30" as="alternateBounds" />
          </mxGeometry>
        </mxCell>
        <mxCell id="OrPgmlpN6uTksLVw8aos-410" style="shape=partialRectangle;connectable=0;fillColor=none;top=0;left=0;bottom=0;right=0;align=left;spacingLeft=6;overflow=hidden;" vertex="1" parent="OrPgmlpN6uTksLVw8aos-404">
          <mxGeometry x="470" width="110" height="30" as="geometry">
            <mxRectangle width="110" height="30" as="alternateBounds" />
          </mxGeometry>
        </mxCell>
        <mxCell id="OrPgmlpN6uTksLVw8aos-411" style="shape=partialRectangle;connectable=0;fillColor=none;top=0;left=0;bottom=0;right=0;align=left;spacingLeft=6;overflow=hidden;" vertex="1" parent="OrPgmlpN6uTksLVw8aos-404">
          <mxGeometry x="580" width="110" height="30" as="geometry">
            <mxRectangle width="110" height="30" as="alternateBounds" />
          </mxGeometry>
        </mxCell>
        <mxCell id="OrPgmlpN6uTksLVw8aos-412" style="shape=partialRectangle;connectable=0;fillColor=none;top=0;left=0;bottom=0;right=0;align=left;spacingLeft=6;overflow=hidden;" vertex="1" parent="OrPgmlpN6uTksLVw8aos-404">
          <mxGeometry x="690" width="110" height="30" as="geometry">
            <mxRectangle width="110" height="30" as="alternateBounds" />
          </mxGeometry>
        </mxCell>
        <mxCell id="OrPgmlpN6uTksLVw8aos-413" style="shape=tableRow;horizontal=0;startSize=0;swimlaneHead=0;swimlaneBody=0;fillColor=none;collapsible=0;dropTarget=0;points=[[0,0.5],[1,0.5]];portConstraint=eastwest;top=0;left=0;right=0;bottom=0;" vertex="1" parent="OrPgmlpN6uTksLVw8aos-190">
          <mxGeometry y="450" width="800" height="30" as="geometry" />
        </mxCell>
        <mxCell id="OrPgmlpN6uTksLVw8aos-414" style="shape=partialRectangle;connectable=0;fillColor=none;top=0;left=0;bottom=0;right=0;editable=1;overflow=hidden;" vertex="1" parent="OrPgmlpN6uTksLVw8aos-413">
          <mxGeometry width="30" height="30" as="geometry">
            <mxRectangle width="30" height="30" as="alternateBounds" />
          </mxGeometry>
        </mxCell>
        <mxCell id="OrPgmlpN6uTksLVw8aos-415" style="shape=partialRectangle;connectable=0;fillColor=none;top=0;left=0;bottom=0;right=0;align=left;spacingLeft=6;overflow=hidden;" vertex="1" parent="OrPgmlpN6uTksLVw8aos-413">
          <mxGeometry x="30" width="150" height="30" as="geometry">
            <mxRectangle width="150" height="30" as="alternateBounds" />
          </mxGeometry>
        </mxCell>
        <mxCell id="OrPgmlpN6uTksLVw8aos-416" style="shape=partialRectangle;connectable=0;fillColor=none;top=0;left=0;bottom=0;right=0;align=left;spacingLeft=6;overflow=hidden;" vertex="1" parent="OrPgmlpN6uTksLVw8aos-413">
          <mxGeometry x="180" width="110" height="30" as="geometry">
            <mxRectangle width="110" height="30" as="alternateBounds" />
          </mxGeometry>
        </mxCell>
        <mxCell id="OrPgmlpN6uTksLVw8aos-417" style="shape=partialRectangle;connectable=0;fillColor=none;top=0;left=0;bottom=0;right=0;align=left;spacingLeft=6;overflow=hidden;" vertex="1" parent="OrPgmlpN6uTksLVw8aos-413">
          <mxGeometry x="290" width="90" height="30" as="geometry">
            <mxRectangle width="90" height="30" as="alternateBounds" />
          </mxGeometry>
        </mxCell>
        <mxCell id="OrPgmlpN6uTksLVw8aos-418" style="shape=partialRectangle;connectable=0;fillColor=none;top=0;left=0;bottom=0;right=0;align=left;spacingLeft=6;overflow=hidden;" vertex="1" parent="OrPgmlpN6uTksLVw8aos-413">
          <mxGeometry x="380" width="90" height="30" as="geometry">
            <mxRectangle width="90" height="30" as="alternateBounds" />
          </mxGeometry>
        </mxCell>
        <mxCell id="OrPgmlpN6uTksLVw8aos-419" style="shape=partialRectangle;connectable=0;fillColor=none;top=0;left=0;bottom=0;right=0;align=left;spacingLeft=6;overflow=hidden;" vertex="1" parent="OrPgmlpN6uTksLVw8aos-413">
          <mxGeometry x="470" width="110" height="30" as="geometry">
            <mxRectangle width="110" height="30" as="alternateBounds" />
          </mxGeometry>
        </mxCell>
        <mxCell id="OrPgmlpN6uTksLVw8aos-420" style="shape=partialRectangle;connectable=0;fillColor=none;top=0;left=0;bottom=0;right=0;align=left;spacingLeft=6;overflow=hidden;" vertex="1" parent="OrPgmlpN6uTksLVw8aos-413">
          <mxGeometry x="580" width="110" height="30" as="geometry">
            <mxRectangle width="110" height="30" as="alternateBounds" />
          </mxGeometry>
        </mxCell>
        <mxCell id="OrPgmlpN6uTksLVw8aos-421" style="shape=partialRectangle;connectable=0;fillColor=none;top=0;left=0;bottom=0;right=0;align=left;spacingLeft=6;overflow=hidden;" vertex="1" parent="OrPgmlpN6uTksLVw8aos-413">
          <mxGeometry x="690" width="110" height="30" as="geometry">
            <mxRectangle width="110" height="30" as="alternateBounds" />
          </mxGeometry>
        </mxCell>
        <mxCell id="OrPgmlpN6uTksLVw8aos-422" style="shape=tableRow;horizontal=0;startSize=0;swimlaneHead=0;swimlaneBody=0;fillColor=none;collapsible=0;dropTarget=0;points=[[0,0.5],[1,0.5]];portConstraint=eastwest;top=0;left=0;right=0;bottom=0;" vertex="1" parent="OrPgmlpN6uTksLVw8aos-190">
          <mxGeometry y="480" width="800" height="30" as="geometry" />
        </mxCell>
        <mxCell id="OrPgmlpN6uTksLVw8aos-423" style="shape=partialRectangle;connectable=0;fillColor=none;top=0;left=0;bottom=0;right=0;editable=1;overflow=hidden;" vertex="1" parent="OrPgmlpN6uTksLVw8aos-422">
          <mxGeometry width="30" height="30" as="geometry">
            <mxRectangle width="30" height="30" as="alternateBounds" />
          </mxGeometry>
        </mxCell>
        <mxCell id="OrPgmlpN6uTksLVw8aos-424" style="shape=partialRectangle;connectable=0;fillColor=none;top=0;left=0;bottom=0;right=0;align=left;spacingLeft=6;overflow=hidden;" vertex="1" parent="OrPgmlpN6uTksLVw8aos-422">
          <mxGeometry x="30" width="150" height="30" as="geometry">
            <mxRectangle width="150" height="30" as="alternateBounds" />
          </mxGeometry>
        </mxCell>
        <mxCell id="OrPgmlpN6uTksLVw8aos-425" style="shape=partialRectangle;connectable=0;fillColor=none;top=0;left=0;bottom=0;right=0;align=left;spacingLeft=6;overflow=hidden;" vertex="1" parent="OrPgmlpN6uTksLVw8aos-422">
          <mxGeometry x="180" width="110" height="30" as="geometry">
            <mxRectangle width="110" height="30" as="alternateBounds" />
          </mxGeometry>
        </mxCell>
        <mxCell id="OrPgmlpN6uTksLVw8aos-426" style="shape=partialRectangle;connectable=0;fillColor=none;top=0;left=0;bottom=0;right=0;align=left;spacingLeft=6;overflow=hidden;" vertex="1" parent="OrPgmlpN6uTksLVw8aos-422">
          <mxGeometry x="290" width="90" height="30" as="geometry">
            <mxRectangle width="90" height="30" as="alternateBounds" />
          </mxGeometry>
        </mxCell>
        <mxCell id="OrPgmlpN6uTksLVw8aos-427" style="shape=partialRectangle;connectable=0;fillColor=none;top=0;left=0;bottom=0;right=0;align=left;spacingLeft=6;overflow=hidden;" vertex="1" parent="OrPgmlpN6uTksLVw8aos-422">
          <mxGeometry x="380" width="90" height="30" as="geometry">
            <mxRectangle width="90" height="30" as="alternateBounds" />
          </mxGeometry>
        </mxCell>
        <mxCell id="OrPgmlpN6uTksLVw8aos-428" style="shape=partialRectangle;connectable=0;fillColor=none;top=0;left=0;bottom=0;right=0;align=left;spacingLeft=6;overflow=hidden;" vertex="1" parent="OrPgmlpN6uTksLVw8aos-422">
          <mxGeometry x="470" width="110" height="30" as="geometry">
            <mxRectangle width="110" height="30" as="alternateBounds" />
          </mxGeometry>
        </mxCell>
        <mxCell id="OrPgmlpN6uTksLVw8aos-429" style="shape=partialRectangle;connectable=0;fillColor=none;top=0;left=0;bottom=0;right=0;align=left;spacingLeft=6;overflow=hidden;" vertex="1" parent="OrPgmlpN6uTksLVw8aos-422">
          <mxGeometry x="580" width="110" height="30" as="geometry">
            <mxRectangle width="110" height="30" as="alternateBounds" />
          </mxGeometry>
        </mxCell>
        <mxCell id="OrPgmlpN6uTksLVw8aos-430" style="shape=partialRectangle;connectable=0;fillColor=none;top=0;left=0;bottom=0;right=0;align=left;spacingLeft=6;overflow=hidden;" vertex="1" parent="OrPgmlpN6uTksLVw8aos-422">
          <mxGeometry x="690" width="110" height="30" as="geometry">
            <mxRectangle width="110" height="30" as="alternateBounds" />
          </mxGeometry>
        </mxCell>
        <mxCell id="OrPgmlpN6uTksLVw8aos-431" style="shape=tableRow;horizontal=0;startSize=0;swimlaneHead=0;swimlaneBody=0;fillColor=none;collapsible=0;dropTarget=0;points=[[0,0.5],[1,0.5]];portConstraint=eastwest;top=0;left=0;right=0;bottom=0;" vertex="1" parent="OrPgmlpN6uTksLVw8aos-190">
          <mxGeometry y="510" width="800" height="30" as="geometry" />
        </mxCell>
        <mxCell id="OrPgmlpN6uTksLVw8aos-432" style="shape=partialRectangle;connectable=0;fillColor=none;top=0;left=0;bottom=0;right=0;editable=1;overflow=hidden;" vertex="1" parent="OrPgmlpN6uTksLVw8aos-431">
          <mxGeometry width="30" height="30" as="geometry">
            <mxRectangle width="30" height="30" as="alternateBounds" />
          </mxGeometry>
        </mxCell>
        <mxCell id="OrPgmlpN6uTksLVw8aos-433" style="shape=partialRectangle;connectable=0;fillColor=none;top=0;left=0;bottom=0;right=0;align=left;spacingLeft=6;overflow=hidden;" vertex="1" parent="OrPgmlpN6uTksLVw8aos-431">
          <mxGeometry x="30" width="150" height="30" as="geometry">
            <mxRectangle width="150" height="30" as="alternateBounds" />
          </mxGeometry>
        </mxCell>
        <mxCell id="OrPgmlpN6uTksLVw8aos-434" style="shape=partialRectangle;connectable=0;fillColor=none;top=0;left=0;bottom=0;right=0;align=left;spacingLeft=6;overflow=hidden;" vertex="1" parent="OrPgmlpN6uTksLVw8aos-431">
          <mxGeometry x="180" width="110" height="30" as="geometry">
            <mxRectangle width="110" height="30" as="alternateBounds" />
          </mxGeometry>
        </mxCell>
        <mxCell id="OrPgmlpN6uTksLVw8aos-435" style="shape=partialRectangle;connectable=0;fillColor=none;top=0;left=0;bottom=0;right=0;align=left;spacingLeft=6;overflow=hidden;" vertex="1" parent="OrPgmlpN6uTksLVw8aos-431">
          <mxGeometry x="290" width="90" height="30" as="geometry">
            <mxRectangle width="90" height="30" as="alternateBounds" />
          </mxGeometry>
        </mxCell>
        <mxCell id="OrPgmlpN6uTksLVw8aos-436" style="shape=partialRectangle;connectable=0;fillColor=none;top=0;left=0;bottom=0;right=0;align=left;spacingLeft=6;overflow=hidden;" vertex="1" parent="OrPgmlpN6uTksLVw8aos-431">
          <mxGeometry x="380" width="90" height="30" as="geometry">
            <mxRectangle width="90" height="30" as="alternateBounds" />
          </mxGeometry>
        </mxCell>
        <mxCell id="OrPgmlpN6uTksLVw8aos-437" style="shape=partialRectangle;connectable=0;fillColor=none;top=0;left=0;bottom=0;right=0;align=left;spacingLeft=6;overflow=hidden;" vertex="1" parent="OrPgmlpN6uTksLVw8aos-431">
          <mxGeometry x="470" width="110" height="30" as="geometry">
            <mxRectangle width="110" height="30" as="alternateBounds" />
          </mxGeometry>
        </mxCell>
        <mxCell id="OrPgmlpN6uTksLVw8aos-438" style="shape=partialRectangle;connectable=0;fillColor=none;top=0;left=0;bottom=0;right=0;align=left;spacingLeft=6;overflow=hidden;" vertex="1" parent="OrPgmlpN6uTksLVw8aos-431">
          <mxGeometry x="580" width="110" height="30" as="geometry">
            <mxRectangle width="110" height="30" as="alternateBounds" />
          </mxGeometry>
        </mxCell>
        <mxCell id="OrPgmlpN6uTksLVw8aos-439" style="shape=partialRectangle;connectable=0;fillColor=none;top=0;left=0;bottom=0;right=0;align=left;spacingLeft=6;overflow=hidden;" vertex="1" parent="OrPgmlpN6uTksLVw8aos-431">
          <mxGeometry x="690" width="110" height="30" as="geometry">
            <mxRectangle width="110" height="30" as="alternateBounds" />
          </mxGeometry>
        </mxCell>
        <mxCell id="OrPgmlpN6uTksLVw8aos-440" style="shape=tableRow;horizontal=0;startSize=0;swimlaneHead=0;swimlaneBody=0;fillColor=none;collapsible=0;dropTarget=0;points=[[0,0.5],[1,0.5]];portConstraint=eastwest;top=0;left=0;right=0;bottom=0;" vertex="1" parent="OrPgmlpN6uTksLVw8aos-190">
          <mxGeometry y="540" width="800" height="30" as="geometry" />
        </mxCell>
        <mxCell id="OrPgmlpN6uTksLVw8aos-441" style="shape=partialRectangle;connectable=0;fillColor=none;top=0;left=0;bottom=0;right=0;editable=1;overflow=hidden;" vertex="1" parent="OrPgmlpN6uTksLVw8aos-440">
          <mxGeometry width="30" height="30" as="geometry">
            <mxRectangle width="30" height="30" as="alternateBounds" />
          </mxGeometry>
        </mxCell>
        <mxCell id="OrPgmlpN6uTksLVw8aos-442" style="shape=partialRectangle;connectable=0;fillColor=none;top=0;left=0;bottom=0;right=0;align=left;spacingLeft=6;overflow=hidden;" vertex="1" parent="OrPgmlpN6uTksLVw8aos-440">
          <mxGeometry x="30" width="150" height="30" as="geometry">
            <mxRectangle width="150" height="30" as="alternateBounds" />
          </mxGeometry>
        </mxCell>
        <mxCell id="OrPgmlpN6uTksLVw8aos-443" style="shape=partialRectangle;connectable=0;fillColor=none;top=0;left=0;bottom=0;right=0;align=left;spacingLeft=6;overflow=hidden;" vertex="1" parent="OrPgmlpN6uTksLVw8aos-440">
          <mxGeometry x="180" width="110" height="30" as="geometry">
            <mxRectangle width="110" height="30" as="alternateBounds" />
          </mxGeometry>
        </mxCell>
        <mxCell id="OrPgmlpN6uTksLVw8aos-444" style="shape=partialRectangle;connectable=0;fillColor=none;top=0;left=0;bottom=0;right=0;align=left;spacingLeft=6;overflow=hidden;" vertex="1" parent="OrPgmlpN6uTksLVw8aos-440">
          <mxGeometry x="290" width="90" height="30" as="geometry">
            <mxRectangle width="90" height="30" as="alternateBounds" />
          </mxGeometry>
        </mxCell>
        <mxCell id="OrPgmlpN6uTksLVw8aos-445" style="shape=partialRectangle;connectable=0;fillColor=none;top=0;left=0;bottom=0;right=0;align=left;spacingLeft=6;overflow=hidden;" vertex="1" parent="OrPgmlpN6uTksLVw8aos-440">
          <mxGeometry x="380" width="90" height="30" as="geometry">
            <mxRectangle width="90" height="30" as="alternateBounds" />
          </mxGeometry>
        </mxCell>
        <mxCell id="OrPgmlpN6uTksLVw8aos-446" style="shape=partialRectangle;connectable=0;fillColor=none;top=0;left=0;bottom=0;right=0;align=left;spacingLeft=6;overflow=hidden;" vertex="1" parent="OrPgmlpN6uTksLVw8aos-440">
          <mxGeometry x="470" width="110" height="30" as="geometry">
            <mxRectangle width="110" height="30" as="alternateBounds" />
          </mxGeometry>
        </mxCell>
        <mxCell id="OrPgmlpN6uTksLVw8aos-447" style="shape=partialRectangle;connectable=0;fillColor=none;top=0;left=0;bottom=0;right=0;align=left;spacingLeft=6;overflow=hidden;" vertex="1" parent="OrPgmlpN6uTksLVw8aos-440">
          <mxGeometry x="580" width="110" height="30" as="geometry">
            <mxRectangle width="110" height="30" as="alternateBounds" />
          </mxGeometry>
        </mxCell>
        <mxCell id="OrPgmlpN6uTksLVw8aos-448" style="shape=partialRectangle;connectable=0;fillColor=none;top=0;left=0;bottom=0;right=0;align=left;spacingLeft=6;overflow=hidden;" vertex="1" parent="OrPgmlpN6uTksLVw8aos-440">
          <mxGeometry x="690" width="110" height="30" as="geometry">
            <mxRectangle width="110" height="30" as="alternateBounds" />
          </mxGeometry>
        </mxCell>
        <mxCell id="OrPgmlpN6uTksLVw8aos-449" value="&lt;code style=&quot;box-sizing: border-box; font-family: source-code-pro, Menlo, Monaco, Consolas, &amp;quot;Courier New&amp;quot;, monospace; font-size: 20px; margin: 0px 2px; padding: 0.15rem 0.3rem; border: 1px solid rgb(234, 234, 234); background-color: rgba(27, 31, 35, 0.05); border-radius: 0.3rem; text-align: start;&quot;&gt;description&lt;/code&gt;&lt;span style=&quot;color: rgb(51, 51, 51); font-family: -apple-system, BlinkMacSystemFont, &amp;quot;Segoe UI&amp;quot;, Roboto, Oxygen, Ubuntu, Cantarell, &amp;quot;Fira Sans&amp;quot;, &amp;quot;Droid Sans&amp;quot;, &amp;quot;Helvetica Neue&amp;quot;, sans-serif; text-align: start; background-color: rgb(255, 255, 255); font-size: 20px;&quot;&gt;,&amp;nbsp;&lt;/span&gt;&lt;code style=&quot;box-sizing: border-box; font-family: source-code-pro, Menlo, Monaco, Consolas, &amp;quot;Courier New&amp;quot;, monospace; font-size: 20px; margin: 0px 2px; padding: 0.15rem 0.3rem; border: 1px solid rgb(234, 234, 234); background-color: rgba(27, 31, 35, 0.05); border-radius: 0.3rem; text-align: start;&quot;&gt;has_life&lt;/code&gt;&lt;span style=&quot;color: rgb(51, 51, 51); font-family: -apple-system, BlinkMacSystemFont, &amp;quot;Segoe UI&amp;quot;, Roboto, Oxygen, Ubuntu, Cantarell, &amp;quot;Fira Sans&amp;quot;, &amp;quot;Droid Sans&amp;quot;, &amp;quot;Helvetica Neue&amp;quot;, sans-serif; text-align: start; background-color: rgb(255, 255, 255); font-size: 20px;&quot;&gt;,&amp;nbsp;&lt;/span&gt;&lt;code style=&quot;box-sizing: border-box; font-family: source-code-pro, Menlo, Monaco, Consolas, &amp;quot;Courier New&amp;quot;, monospace; font-size: 20px; margin: 0px 2px; padding: 0.15rem 0.3rem; border: 1px solid rgb(234, 234, 234); background-color: rgba(27, 31, 35, 0.05); border-radius: 0.3rem; text-align: start;&quot;&gt;is_spherical&lt;/code&gt;&lt;span style=&quot;color: rgb(51, 51, 51); font-family: -apple-system, BlinkMacSystemFont, &amp;quot;Segoe UI&amp;quot;, Roboto, Oxygen, Ubuntu, Cantarell, &amp;quot;Fira Sans&amp;quot;, &amp;quot;Droid Sans&amp;quot;, &amp;quot;Helvetica Neue&amp;quot;, sans-serif; text-align: start; background-color: rgb(255, 255, 255); font-size: 20px;&quot;&gt;,&amp;nbsp;&lt;/span&gt;&lt;code style=&quot;box-sizing: border-box; font-family: source-code-pro, Menlo, Monaco, Consolas, &amp;quot;Courier New&amp;quot;, monospace; font-size: 20px; margin: 0px 2px; padding: 0.15rem 0.3rem; border: 1px solid rgb(234, 234, 234); background-color: rgba(27, 31, 35, 0.05); border-radius: 0.3rem; text-align: start;&quot;&gt;age_in_millions_of_years&lt;/code&gt;&lt;span style=&quot;color: rgb(51, 51, 51); font-family: -apple-system, BlinkMacSystemFont, &amp;quot;Segoe UI&amp;quot;, Roboto, Oxygen, Ubuntu, Cantarell, &amp;quot;Fira Sans&amp;quot;, &amp;quot;Droid Sans&amp;quot;, &amp;quot;Helvetica Neue&amp;quot;, sans-serif; text-align: start; background-color: rgb(255, 255, 255); font-size: 20px;&quot;&gt;,&amp;nbsp;&lt;/span&gt;&lt;code style=&quot;box-sizing: border-box; font-family: source-code-pro, Menlo, Monaco, Consolas, &amp;quot;Courier New&amp;quot;, monospace; font-size: 20px; margin: 0px 2px; padding: 0.15rem 0.3rem; border: 1px solid rgb(234, 234, 234); background-color: rgba(27, 31, 35, 0.05); border-radius: 0.3rem; text-align: start;&quot;&gt;planet_types&lt;/code&gt;&lt;span style=&quot;color: rgb(51, 51, 51); font-family: -apple-system, BlinkMacSystemFont, &amp;quot;Segoe UI&amp;quot;, Roboto, Oxygen, Ubuntu, Cantarell, &amp;quot;Fira Sans&amp;quot;, &amp;quot;Droid Sans&amp;quot;, &amp;quot;Helvetica Neue&amp;quot;, sans-serif; text-align: start; background-color: rgb(255, 255, 255); font-size: 20px;&quot;&gt;,&amp;nbsp;&lt;/span&gt;&lt;code style=&quot;box-sizing: border-box; font-family: source-code-pro, Menlo, Monaco, Consolas, &amp;quot;Courier New&amp;quot;, monospace; font-size: 20px; margin: 0px 2px; padding: 0.15rem 0.3rem; border: 1px solid rgb(234, 234, 234); background-color: rgba(27, 31, 35, 0.05); border-radius: 0.3rem; text-align: start;&quot;&gt;galaxy_types&lt;/code&gt;&lt;span style=&quot;color: rgb(51, 51, 51); font-family: -apple-system, BlinkMacSystemFont, &amp;quot;Segoe UI&amp;quot;, Roboto, Oxygen, Ubuntu, Cantarell, &amp;quot;Fira Sans&amp;quot;, &amp;quot;Droid Sans&amp;quot;, &amp;quot;Helvetica Neue&amp;quot;, sans-serif; text-align: start; background-color: rgb(255, 255, 255); font-size: 20px;&quot;&gt;,&amp;nbsp;&lt;/span&gt;&lt;code style=&quot;box-sizing: border-box; font-family: source-code-pro, Menlo, Monaco, Consolas, &amp;quot;Courier New&amp;quot;, monospace; font-size: 20px; margin: 0px 2px; padding: 0.15rem 0.3rem; border: 1px solid rgb(234, 234, 234); background-color: rgba(27, 31, 35, 0.05); border-radius: 0.3rem; text-align: start;&quot;&gt;distance_from_earth&lt;/code&gt;" style="text;html=1;align=center;verticalAlign=middle;resizable=0;points=[];autosize=1;strokeColor=none;fillColor=none;fontStyle=7;fontSize=20;" vertex="1" parent="1">
          <mxGeometry x="-470" y="60" width="1280" height="40" as="geometry" />
        </mxCell>
        <mxCell id="OrPgmlpN6uTksLVw8aos-450" value="&lt;font style=&quot;font-size: 18px;&quot;&gt;&lt;b&gt;&lt;i&gt;&lt;u&gt;&lt;code style=&quot;box-sizing: border-box; font-family: source-code-pro, Menlo, Monaco, Consolas, &amp;quot;Courier New&amp;quot;, monospace; margin: 0px 2px; padding: 0.15rem 0.3rem; border: 1px solid rgb(234, 234, 234); background-color: rgba(27, 31, 35, 0.05); border-radius: 0.3rem; text-align: left;&quot;&gt;galaxy&lt;/code&gt;&lt;span style=&quot;color: rgb(51, 51, 51); font-family: -apple-system, BlinkMacSystemFont, &amp;quot;Segoe UI&amp;quot;, Roboto, Oxygen, Ubuntu, Cantarell, &amp;quot;Fira Sans&amp;quot;, &amp;quot;Droid Sans&amp;quot;, &amp;quot;Helvetica Neue&amp;quot;, sans-serif; text-align: left; background-color: rgb(255, 255, 255);&quot;&gt;,&amp;nbsp;&lt;/span&gt;&lt;code style=&quot;box-sizing: border-box; font-family: source-code-pro, Menlo, Monaco, Consolas, &amp;quot;Courier New&amp;quot;, monospace; margin: 0px 2px; padding: 0.15rem 0.3rem; border: 1px solid rgb(234, 234, 234); background-color: rgba(27, 31, 35, 0.05); border-radius: 0.3rem; text-align: left;&quot;&gt;star&lt;/code&gt;&lt;span style=&quot;color: rgb(51, 51, 51); font-family: -apple-system, BlinkMacSystemFont, &amp;quot;Segoe UI&amp;quot;, Roboto, Oxygen, Ubuntu, Cantarell, &amp;quot;Fira Sans&amp;quot;, &amp;quot;Droid Sans&amp;quot;, &amp;quot;Helvetica Neue&amp;quot;, sans-serif; text-align: left; background-color: rgb(255, 255, 255);&quot;&gt;,&amp;nbsp;&lt;/span&gt;&lt;code style=&quot;box-sizing: border-box; font-family: source-code-pro, Menlo, Monaco, Consolas, &amp;quot;Courier New&amp;quot;, monospace; margin: 0px 2px; padding: 0.15rem 0.3rem; border: 1px solid rgb(234, 234, 234); background-color: rgba(27, 31, 35, 0.05); border-radius: 0.3rem; text-align: left;&quot;&gt;planet&lt;/code&gt;&lt;span style=&quot;color: rgb(51, 51, 51); font-family: -apple-system, BlinkMacSystemFont, &amp;quot;Segoe UI&amp;quot;, Roboto, Oxygen, Ubuntu, Cantarell, &amp;quot;Fira Sans&amp;quot;, &amp;quot;Droid Sans&amp;quot;, &amp;quot;Helvetica Neue&amp;quot;, sans-serif; text-align: left; background-color: rgb(255, 255, 255);&quot;&gt;, and&amp;nbsp;&lt;/span&gt;&lt;code style=&quot;box-sizing: border-box; font-family: source-code-pro, Menlo, Monaco, Consolas, &amp;quot;Courier New&amp;quot;, monospace; margin: 0px 2px; padding: 0.15rem 0.3rem; border: 1px solid rgb(234, 234, 234); background-color: rgba(27, 31, 35, 0.05); border-radius: 0.3rem; text-align: left;&quot;&gt;moon&lt;/code&gt;&lt;/u&gt;&lt;/i&gt;&lt;/b&gt;&lt;/font&gt;" style="text;html=1;align=center;verticalAlign=middle;resizable=0;points=[];autosize=1;strokeColor=none;fillColor=none;fontSize=20;" vertex="1" parent="1">
          <mxGeometry x="-155" y="140" width="350" height="40" as="geometry" />
        </mxCell>
      </root>
    </mxGraphModel>
  </diagram>
</mxfile>
